<?xml version="1.0" encoding="utf-8"?>
<!-- Generator: Adobe Illustrator 16.0.4, SVG Export Plug-In . SVG Version: 6.00 Build 0)  -->
<!DOCTYPE svg PUBLIC "-//W3C//DTD SVG 1.1//EN" "http://www.w3.org/Graphics/SVG/1.1/DTD/svg11.dtd">
<svg version="1.1"
	 id="svg2607" xmlns:dc="http://purl.org/dc/elements/1.1/" xmlns:cc="http://creativecommons.org/ns#" xmlns:rdf="http://www.w3.org/1999/02/22-rdf-syntax-ns#" xmlns:svg="http://www.w3.org/2000/svg" xmlns:sodipodi="http://sodipodi.sourceforge.net/DTD/sodipodi-0.dtd" xmlns:inkscape="http://www.inkscape.org/namespaces/inkscape" inkscape:output_extension="org.inkscape.output.svg.inkscape" sodipodi:version="0.32" sodipodi:docname="Cartesian-coordinate-system.svg" inkscape:version="0.48+devel r9797"
	 xmlns="http://www.w3.org/2000/svg" xmlns:xlink="http://www.w3.org/1999/xlink" x="0px" y="0px" width="354.33px"
	 height="354.332px" viewBox="0 0 354.33 354.332" enable-background="new 0 0 354.33 354.332" xml:space="preserve">
<defs>
	
	
		<inkscape:perspective  id="perspective2607" inkscape:vp_z="354.33069 : 177.16534 : 1" inkscape:vp_y="0 : 1000 : 0" inkscape:vp_x="0 : 177.16534 : 1" sodipodi:type="inkscape:persp3d" inkscape:persp3d-origin="177.16534 : 118.11023 : 1">
		</inkscape:perspective>
</defs>
<sodipodi:namedview  gridtolerance="10000" grid_units="mm" showguides="false" showgrid="false" inkscape:cy="198.46018" inkscape:cx="123.44065" inkscape:zoom="1" borderopacity="1.0" bordercolor="#666666" pagecolor="#ffffff" id="base" width="100mm" height="99.999997mm" units="mm" inkscape:window-maximized="0" inkscape:window-y="20" inkscape:window-x="0" inkscape:window-height="837" inkscape:window-width="1024" inkscape:grid-points="true" inkscape:guide-bbox="true" inkscape:current-layer="layer1" inkscape:document-units="mm" inkscape:pageshadow="2" inkscape:pageopacity="0.0">
	<sodipodi:guide  position="177.16417" orientation="horizontal" id="guide2617"></sodipodi:guide>
	<sodipodi:guide  position="177.16553" orientation="vertical" id="guide2619"></sodipodi:guide>
	
		<inkscape:grid  empspacing="5" empopacity="0.4" opacity="0.2" empcolor="#0000ff" spacingy="1mm" spacingx="1mm" originy="0px" originx="0px" id="GridFromPre046Settings" type="xygrid" color="#0000ff">
		</inkscape:grid>
</sodipodi:namedview>
<g id="layer1" inkscape:groupmode="layer" inkscape:label="Layer 1">
	<path id="path22419" fill="none" stroke="#C0C0C0" stroke-width="0.8858" d="M35.433,141.732h283.465"/>
	<path id="path22421" fill="none" stroke="#C0C0C0" stroke-width="0.8858" d="M318.898,106.299H35.433"/>
	<path id="path22423" fill="none" stroke="#C0C0C0" stroke-width="0.8858" d="M35.433,70.866h283.465"/>
	<path id="path22425" fill="none" stroke="#C0C0C0" stroke-width="0.8858" d="M318.898,212.599H35.433"/>
	<path id="path22427" fill="none" stroke="#C0C0C0" stroke-width="0.8858" d="M318.898,248.031H35.433"/>
	<path id="path22429" fill="none" stroke="#C0C0C0" stroke-width="0.8858" d="M35.433,283.464h283.465"/>
	<path id="path22431" fill="none" stroke="#C0C0C0" stroke-width="0.8858" d="M283.464,318.898V35.433"/>
	<path id="path22433" fill="none" stroke="#C0C0C0" stroke-width="0.8858" d="M248.031,35.433v283.465"/>
	<path id="path22435" fill="none" stroke="#C0C0C0" stroke-width="0.8858" d="M212.599,318.898V35.433"/>
	<path id="path22437" fill="none" stroke="#C0C0C0" stroke-width="0.8858" d="M141.733,35.433v283.465"/>
	<path id="path22439" fill="none" stroke="#C0C0C0" stroke-width="0.8858" d="M106.299,318.898V35.433"/>
	<path id="path22441" fill="none" stroke="#C0C0C0" stroke-width="0.8858" d="M70.866,35.433v283.465"/>
	
		<path id="path11711" sodipodi:nodetypes="cc" fill="none" stroke="#FF0000" stroke-width="1.7717" stroke-linecap="round" stroke-dasharray="1.7717,3.5433" d="
		M70.866,141.732v35.433"/>
	
		<path id="path12598" sodipodi:nodetypes="cc" fill="none" stroke="#FF0000" stroke-width="1.7717" stroke-linecap="round" stroke-dasharray="1.7717,3.5433" d="
		M70.866,141.732h106.299"/>
	
		<path id="path14372" sodipodi:nodetypes="cc" fill="none" stroke="#00C000" stroke-width="1.7717" stroke-linecap="round" stroke-dasharray="1.7717,3.5433" d="
		M248.031,70.866v106.299"/>
	
		<path id="path15259" sodipodi:nodetypes="cc" fill="none" stroke="#00C000" stroke-width="1.7717" stroke-linecap="round" stroke-dasharray="1.7717,3.5433" d="
		M177.165,70.866h70.866"/>
	
		<path id="path2623" sodipodi:nodetypes="cc" fill="none" stroke="#000000" stroke-width="2.6575" stroke-linecap="round" stroke-linejoin="round" d="
		M28.347,177.166h297.638"/>
	
		<path id="path2625" sodipodi:nodetypes="cc" fill="none" stroke="#000000" stroke-width="2.6575" stroke-linecap="round" stroke-linejoin="round" d="
		M177.165,325.984V28.347"/>
	<path id="path3698" fill="none" stroke="#000000" stroke-width="1.7717" stroke-linecap="round" d="M141.733,170.079v14.173"/>
	<path id="path3700" fill="none" stroke="#000000" stroke-width="1.7717" stroke-linecap="round" d="M106.299,170.079v14.173"/>
	<path id="path3702" sodipodi:nodetypes="cc" fill="none" stroke="#000000" stroke-width="1.7717" stroke-linecap="round" d="
		M70.866,170.079v14.173"/>
	<path id="path3706" fill="none" stroke="#000000" stroke-width="1.7717" stroke-linecap="round" d="M212.599,170.079v14.173"/>
	<path id="path3708" fill="none" stroke="#000000" stroke-width="1.7717" stroke-linecap="round" d="M248.031,170.079v14.173"/>
	<path id="path3710" fill="none" stroke="#000000" stroke-width="1.7717" stroke-linecap="round" d="M283.464,170.079v14.173"/>
	<path id="path4599" fill="none" stroke="#000000" stroke-width="1.7717" stroke-linecap="round" d="M170.078,141.732h14.174"/>
	<path id="path4601" fill="none" stroke="#000000" stroke-width="1.7717" stroke-linecap="round" d="M170.078,106.299h14.174"/>
	<path id="path4603" fill="none" stroke="#000000" stroke-width="1.7717" stroke-linecap="round" d="M170.078,70.866h14.174"/>
	<path id="path4605" fill="none" stroke="#000000" stroke-width="1.7717" stroke-linecap="round" d="M170.078,212.599h14.174"/>
	<path id="path4607" fill="none" stroke="#000000" stroke-width="1.7717" stroke-linecap="round" d="M170.078,248.031h14.174"/>
	<path id="path4609" fill="none" stroke="#000000" stroke-width="1.7717" stroke-linecap="round" d="M170.078,283.464h14.174"/>
	<path id="path9048" fill="none" stroke="#000000" stroke-width="2.6575" stroke-linecap="round" stroke-linejoin="round" d="
		M170.078,42.52l7.087-13.882l7.087,13.882"/>
	<path id="path9050" fill="none" stroke="#000000" stroke-width="2.6575" stroke-linecap="round" stroke-linejoin="round" d="
		M311.811,170.079l14.348,7.088l-14.348,7.085"/>
	
		<path id="path9937" sodipodi:ry="3.5433071" sodipodi:rx="3.5433071" sodipodi:cy="177.16533" sodipodi:cx="177.16536" sodipodi:type="arc" fill="#C000BE" d="
		M180.708,177.166c0.003,1.957-1.582,3.545-3.538,3.547c-1.957,0.003-3.546-1.582-3.548-3.539c0-0.003,0-0.006,0-0.008
		c-0.003-1.957,1.582-3.545,3.539-3.548s3.545,1.582,3.547,3.539C180.708,177.16,180.708,177.163,180.708,177.166z"/>
	
		<path id="path10824" sodipodi:ry="3.5433071" sodipodi:rx="3.5433071" sodipodi:cy="141.73227" sodipodi:cx="70.866142" sodipodi:type="arc" fill="#FF0000" d="
		M74.409,141.732c0.002,1.957-1.582,3.545-3.539,3.547s-3.545-1.582-3.548-3.539c0-0.002,0-0.005,0-0.008
		c-0.002-1.957,1.582-3.545,3.539-3.548s3.546,1.582,3.548,3.539C74.409,141.727,74.409,141.729,74.409,141.732z"/>
	
		<path id="path13485" sodipodi:ry="3.5433071" sodipodi:rx="3.5433071" sodipodi:cy="88.582657" sodipodi:cx="248.03149" sodipodi:type="arc" fill="#00C000" d="
		M251.574,70.866c0.003,1.957-1.582,3.545-3.539,3.547c-1.956,0.002-3.545-1.582-3.547-3.539c0-0.003,0-0.006,0-0.009
		c-0.003-1.957,1.582-3.545,3.539-3.548c1.956-0.002,3.545,1.582,3.547,3.539C251.574,70.86,251.574,70.863,251.574,70.866z"/>
	
		<path id="path16146" sodipodi:ry="3.5433071" sodipodi:rx="3.5433071" sodipodi:cy="265.74802" sodipodi:cx="124.01575" sodipodi:type="arc" fill="#0000FF" d="
		M127.559,265.748c0.003,1.957-1.582,3.546-3.539,3.549c-1.957,0.002-3.545-1.583-3.547-3.539c0-0.004,0-0.006,0-0.01
		c-0.003-1.957,1.582-3.545,3.538-3.547c1.957-0.002,3.546,1.582,3.548,3.539C127.559,265.742,127.559,265.746,127.559,265.748z"/>
	
		<path id="path18803" fill="none" stroke="#0000FF" stroke-width="1.7717" stroke-linecap="round" stroke-dasharray="1.7717,3.5433" d="
		M124.016,265.748v-88.582"/>
	
		<path id="path18805" fill="none" stroke="#0000FF" stroke-width="1.7717" stroke-linecap="round" stroke-dasharray="1.7717,3.5433" d="
		M124.016,265.748h53.149"/>
	<path id="text19692" fill="#FF0000" d="M40.589,115.261c-0.872,1.498-1.52,2.979-1.943,4.443c-0.423,1.465-0.635,2.949-0.635,4.453
		s0.214,2.993,0.64,4.468c0.427,1.475,1.073,2.958,1.938,4.448h-1.562c-0.977-1.53-1.707-3.034-2.192-4.512
		c-0.484-1.478-0.728-2.946-0.728-4.404c0-1.452,0.241-2.913,0.723-4.385c0.482-1.471,1.215-2.975,2.197-4.512H40.589z
		 M44.32,123.337h12.52v1.66H44.32V123.337z M67.073,122.575c0.944,0.202,1.682,0.622,2.212,1.26
		c0.531,0.638,0.796,1.426,0.796,2.363c0,1.439-0.494,2.552-1.484,3.34c-0.989,0.788-2.396,1.182-4.219,1.182
		c-0.611,0-1.241-0.06-1.89-0.181c-0.647-0.12-1.316-0.301-2.007-0.542v-1.904c0.547,0.319,1.146,0.56,1.797,0.723
		c0.651,0.163,1.332,0.244,2.041,0.244c1.237,0,2.18-0.244,2.827-0.732c0.648-0.488,0.972-1.198,0.972-2.129
		c0-0.859-0.301-1.531-0.903-2.017c-0.602-0.485-1.44-0.728-2.515-0.728h-1.699v-1.621h1.777c0.971,0,1.713-0.193,2.227-0.581
		c0.515-0.387,0.771-0.945,0.771-1.675c0-0.749-0.265-1.323-0.796-1.724c-0.53-0.4-1.29-0.601-2.28-0.601
		c-0.54,0-1.119,0.059-1.738,0.176c-0.618,0.117-1.299,0.3-2.041,0.547v-1.758c0.749-0.208,1.45-0.364,2.104-0.469
		c0.654-0.104,1.271-0.156,1.851-0.156c1.498,0,2.683,0.34,3.555,1.021c0.873,0.681,1.309,1.6,1.309,2.759
		c0,0.808-0.23,1.489-0.693,2.046C68.584,121.975,67.927,122.36,67.073,122.575L67.073,122.575z M74.036,127.956h2.061v1.68
		l-1.602,3.125h-1.26l0.801-3.125V127.956z M80.54,128.776h3.223v-11.123l-3.506,0.703v-1.797l3.486-0.703h1.973v12.92h3.223v1.66
		H80.54V128.776z M92.396,115.261h1.562c0.977,1.537,1.708,3.041,2.192,4.512c0.485,1.472,0.728,2.933,0.728,4.385
		c0,1.458-0.242,2.927-0.728,4.404c-0.484,1.478-1.216,2.982-2.192,4.512h-1.562c0.866-1.491,1.513-2.974,1.938-4.448
		c0.427-1.475,0.64-2.964,0.64-4.468s-0.213-2.988-0.64-4.453C93.908,118.239,93.262,116.758,92.396,115.261L92.396,115.261z"/>
	<path id="text19696" fill="#00C000" d="M239.015,44.395c-0.873,1.498-1.521,2.979-1.943,4.443
		c-0.424,1.465-0.635,2.949-0.635,4.453s0.213,2.993,0.64,4.468c0.426,1.475,1.072,2.958,1.938,4.448h-1.562
		c-0.977-1.53-1.708-3.034-2.192-4.512c-0.485-1.478-0.728-2.946-0.728-4.404c0-1.452,0.24-2.913,0.723-4.385
		c0.481-1.471,1.214-2.975,2.197-4.512H239.015z M244.464,57.91h6.885v1.66h-9.258v-1.66c0.748-0.774,1.769-1.814,3.062-3.12
		c1.292-1.305,2.104-2.146,2.437-2.524c0.631-0.709,1.072-1.31,1.323-1.802c0.25-0.491,0.376-0.975,0.376-1.45
		c0-0.774-0.272-1.406-0.815-1.895c-0.544-0.488-1.252-0.732-2.124-0.732c-0.619,0-1.271,0.107-1.958,0.322
		c-0.688,0.215-1.421,0.541-2.202,0.977v-1.992c0.794-0.319,1.536-0.56,2.227-0.723c0.689-0.163,1.321-0.244,1.895-0.244
		c1.51,0,2.715,0.378,3.613,1.133c0.898,0.755,1.348,1.765,1.348,3.027c0,0.599-0.112,1.167-0.337,1.704s-0.634,1.17-1.226,1.899
		c-0.163,0.189-0.681,0.734-1.553,1.636C247.282,55.028,246.052,56.289,244.464,57.91L244.464,57.91z M255.704,57.09h2.061v1.68
		l-1.602,3.125h-1.26l0.801-3.125V57.09z M267.843,51.709c0.943,0.202,1.681,0.622,2.212,1.26c0.53,0.638,0.796,1.426,0.796,2.363
		c0,1.439-0.495,2.552-1.484,3.34c-0.99,0.788-2.396,1.182-4.219,1.182c-0.612,0-1.242-0.06-1.89-0.181
		c-0.648-0.12-1.317-0.301-2.007-0.542v-1.904c0.547,0.319,1.146,0.56,1.797,0.723c0.65,0.163,1.331,0.244,2.041,0.244
		c1.236,0,2.179-0.244,2.827-0.732c0.647-0.488,0.972-1.198,0.972-2.129c0-0.859-0.302-1.531-0.903-2.017
		c-0.603-0.485-1.44-0.728-2.515-0.728h-1.699v-1.621h1.777c0.97,0,1.712-0.193,2.227-0.581c0.514-0.387,0.771-0.945,0.771-1.675
		c0-0.749-0.266-1.323-0.796-1.724c-0.531-0.4-1.291-0.601-2.28-0.601c-0.541,0-1.12,0.059-1.738,0.176
		c-0.619,0.117-1.299,0.3-2.041,0.547v-1.758c0.748-0.208,1.45-0.364,2.104-0.469c0.654-0.104,1.271-0.156,1.851-0.156
		c1.497,0,2.682,0.34,3.555,1.021c0.872,0.681,1.309,1.6,1.309,2.759c0,0.808-0.231,1.489-0.693,2.046
		C269.353,51.108,268.696,51.494,267.843,51.709L267.843,51.709z M274.064,44.395h1.562c0.977,1.537,1.707,3.041,2.192,4.512
		c0.484,1.472,0.728,2.933,0.728,4.385c0,1.458-0.243,2.927-0.728,4.404c-0.485,1.478-1.216,2.982-2.192,4.512h-1.562
		c0.865-1.491,1.512-2.974,1.938-4.448c0.426-1.475,0.64-2.964,0.64-4.468s-0.214-2.988-0.64-4.453
		C275.575,47.373,274.929,45.892,274.064,44.395L274.064,44.395z"/>
	<path id="text19700" fill="#0000FF" d="M54.641,274.219c-0.872,1.497-1.521,2.979-1.943,4.443s-0.635,2.949-0.635,4.453
		s0.213,2.993,0.64,4.468s1.072,2.957,1.938,4.448h-1.562c-0.977-1.53-1.707-3.034-2.192-4.512s-0.728-2.946-0.728-4.404
		c0-1.452,0.241-2.913,0.723-4.385s1.214-2.976,2.197-4.512H54.641z M58.371,282.295h12.52v1.66h-12.52V282.295z M75.49,287.735
		h3.223v-11.123l-3.506,0.703v-1.797l3.486-0.703h1.973v12.92h3.223v1.66H75.49V287.735z M87.883,286.915h2.061v2.48h-2.061V286.915
		z M94.27,274.815h7.744v1.66h-5.938v3.574c0.286-0.098,0.573-0.171,0.859-0.22s0.573-0.073,0.859-0.073
		c1.628,0,2.917,0.446,3.867,1.338s1.426,2.1,1.426,3.623c0,1.569-0.488,2.788-1.465,3.657s-2.354,1.304-4.131,1.304
		c-0.612,0-1.235-0.052-1.87-0.156s-1.291-0.261-1.968-0.469v-1.982c0.586,0.319,1.191,0.557,1.816,0.713s1.286,0.234,1.982,0.234
		c1.126,0,2.019-0.296,2.676-0.889s0.986-1.396,0.986-2.412s-0.329-1.819-0.986-2.412s-1.55-0.889-2.676-0.889
		c-0.527,0-1.053,0.059-1.577,0.176s-1.06,0.3-1.606,0.547V274.815z M107.19,286.915h2.061v1.68l-1.602,3.125h-1.26l0.801-3.125
		V286.915z M113.332,282.295h12.52v1.66h-12.52V282.295z M131.809,287.735h6.885v1.66h-9.258v-1.66
		c0.749-0.774,1.77-1.814,3.062-3.12c1.292-1.305,2.104-2.146,2.437-2.524c0.632-0.71,1.072-1.31,1.323-1.802
		c0.251-0.491,0.376-0.975,0.376-1.45c0-0.774-0.271-1.406-0.815-1.895s-1.252-0.732-2.124-0.732c-0.618,0-1.271,0.107-1.958,0.322
		s-1.421,0.54-2.202,0.977v-1.992c0.794-0.319,1.536-0.56,2.227-0.723s1.321-0.244,1.895-0.244c1.511,0,2.715,0.378,3.613,1.133
		s1.348,1.765,1.348,3.027c0,0.599-0.112,1.167-0.337,1.704s-0.633,1.17-1.226,1.899c-0.163,0.188-0.681,0.734-1.553,1.636
		C134.628,284.853,133.398,286.114,131.809,287.735L131.809,287.735z M142.844,286.915h2.061v2.48h-2.061V286.915z M149.231,274.815
		h7.744v1.66h-5.938v3.574c0.286-0.098,0.573-0.171,0.859-0.22s0.573-0.073,0.859-0.073c1.628,0,2.917,0.446,3.867,1.338
		s1.426,2.1,1.426,3.623c0,1.569-0.488,2.788-1.465,3.657s-2.354,1.304-4.131,1.304c-0.612,0-1.235-0.052-1.87-0.156
		s-1.291-0.261-1.968-0.469v-1.982c0.586,0.319,1.191,0.557,1.816,0.713s1.286,0.234,1.982,0.234c1.126,0,2.019-0.296,2.676-0.889
		s0.986-1.396,0.986-2.412s-0.329-1.819-0.986-2.412s-1.55-0.889-2.676-0.889c-0.527,0-1.053,0.059-1.577,0.176
		s-1.06,0.3-1.606,0.547V274.815z M161.408,274.219h1.562c0.977,1.536,1.707,3.04,2.192,4.512s0.728,2.933,0.728,4.385
		c0,1.458-0.242,2.927-0.728,4.404s-1.216,2.981-2.192,4.512h-1.562c0.866-1.491,1.512-2.974,1.938-4.448s0.64-2.964,0.64-4.468
		s-0.213-2.988-0.64-4.453S162.275,275.716,161.408,274.219L161.408,274.219z"/>
	<text transform="matrix(1 0 0 1 183.2073 165.8696)" fill="#C000BE" font-family="'ArialMT'" font-size="20">(0,0)</text>
	<path id="text22363" d="M330.019,193.757c-0.336,0.234-0.633,0.436-0.891,0.604s-0.49,0.305-0.697,0.41s-0.395,0.184-0.562,0.234
		s-0.326,0.076-0.475,0.076c-0.234,0-0.471-0.123-0.709-0.369s-0.473-0.574-0.703-0.984s-0.461-0.883-0.691-1.418
		s-0.455-1.092-0.674-1.67c-0.18,0.242-0.385,0.514-0.615,0.814s-0.477,0.623-0.738,0.967s-0.533,0.709-0.814,1.096
		s-0.559,0.787-0.832,1.201c-0.289,0.039-0.613,0.088-0.973,0.146s-0.684,0.131-0.973,0.217l-0.27-0.41
		c0.359-0.312,0.746-0.676,1.16-1.09s0.834-0.848,1.26-1.301s0.844-0.912,1.254-1.377s0.791-0.908,1.143-1.33
		c-0.227-0.594-0.449-1.172-0.668-1.734s-0.436-1.061-0.65-1.494s-0.424-0.781-0.627-1.043s-0.398-0.393-0.586-0.393
		c-0.07,0-0.186,0.016-0.346,0.047s-0.322,0.066-0.486,0.105s-0.311,0.074-0.439,0.105s-0.193,0.047-0.193,0.047l-0.164-0.457
		c0.328-0.141,0.643-0.279,0.943-0.416s0.576-0.258,0.826-0.363s0.463-0.189,0.639-0.252s0.307-0.094,0.393-0.094
		c0.211,0,0.426,0.133,0.645,0.398s0.441,0.619,0.668,1.061s0.457,0.945,0.691,1.512s0.469,1.15,0.703,1.752
		c0.32-0.383,0.633-0.773,0.938-1.172s0.574-0.768,0.809-1.107s0.424-0.627,0.568-0.861s0.217-0.379,0.217-0.434
		c0-0.078-0.012-0.148-0.035-0.211s-0.074-0.109-0.152-0.141s-0.193-0.049-0.346-0.053s-0.354,0.006-0.604,0.029l-0.023-0.48
		c0.516-0.109,0.973-0.186,1.371-0.229s0.695-0.064,0.891-0.064c0.375,0,0.637,0.062,0.785,0.188s0.223,0.27,0.223,0.434
		c0,0.156-0.092,0.369-0.275,0.639s-0.453,0.613-0.809,1.031s-0.799,0.914-1.33,1.488s-1.141,1.236-1.828,1.986
		c0.219,0.562,0.436,1.104,0.65,1.623s0.424,0.979,0.627,1.377s0.402,0.717,0.598,0.955s0.383,0.357,0.562,0.357
		s0.389-0.027,0.627-0.082s0.502-0.156,0.791-0.305L330.019,193.757L330.019,193.757z"/>
	<path id="text22367" d="M166.37,32.441c0,0.266-0.072,0.607-0.217,1.025s-0.379,0.977-0.703,1.676s-0.75,1.568-1.277,2.607
		s-1.17,2.309-1.928,3.809c-0.523,1.023-1.045,1.953-1.564,2.789s-1.053,1.553-1.6,2.15s-1.117,1.061-1.711,1.389
		s-1.223,0.492-1.887,0.492c-0.234,0-0.455-0.02-0.662-0.059s-0.387-0.088-0.539-0.146s-0.273-0.123-0.363-0.193
		s-0.135-0.137-0.135-0.199c0-0.094,0.037-0.225,0.111-0.393s0.166-0.344,0.275-0.527s0.229-0.352,0.357-0.504
		s0.248-0.256,0.357-0.311c0.188,0.125,0.354,0.223,0.498,0.293s0.279,0.121,0.404,0.152s0.25,0.049,0.375,0.053
		s0.258,0.006,0.398,0.006c0.633,0,1.252-0.307,1.857-0.92s1.236-1.479,1.893-2.596c-0.078-0.453-0.174-0.965-0.287-1.535
		s-0.238-1.156-0.375-1.758s-0.279-1.205-0.428-1.811s-0.297-1.174-0.445-1.705s-0.291-1.01-0.428-1.436s-0.264-0.76-0.381-1.002
		c-0.18-0.398-0.332-0.658-0.457-0.779s-0.254-0.182-0.387-0.182c-0.07,0-0.17,0.016-0.299,0.047s-0.256,0.064-0.381,0.1
		s-0.234,0.066-0.328,0.094s-0.141,0.041-0.141,0.041l-0.141-0.434c0.328-0.148,0.641-0.291,0.938-0.428s0.564-0.256,0.803-0.357
		s0.447-0.184,0.627-0.246s0.316-0.094,0.41-0.094c0.109,0,0.205,0.027,0.287,0.082s0.162,0.141,0.24,0.258s0.154,0.271,0.229,0.463
		s0.158,0.42,0.252,0.686c0.148,0.422,0.311,0.92,0.486,1.494s0.354,1.193,0.533,1.857s0.355,1.354,0.527,2.068
		s0.328,1.424,0.469,2.127c0.25-0.492,0.502-0.994,0.756-1.506s0.498-1.018,0.732-1.518s0.451-0.979,0.65-1.436
		s0.375-0.877,0.527-1.26s0.271-0.713,0.357-0.99s0.129-0.486,0.129-0.627c0-0.391-0.207-0.598-0.621-0.621
		c-0.25-0.023-0.605,0.066-1.066,0.27l-0.211-0.434c0.562-0.328,1.057-0.562,1.482-0.703s0.771-0.211,1.037-0.211
		c0.133,0,0.258,0.01,0.375,0.029s0.219,0.061,0.305,0.123s0.154,0.152,0.205,0.27S166.37,32.246,166.37,32.441L166.37,32.441z"/>
	<path id="text22371" d="M188.115,283.573h7.512v0.996h-7.512V283.573z M201.767,283.116c0.566,0.121,1.009,0.373,1.327,0.756
		s0.478,0.855,0.478,1.418c0,0.863-0.297,1.531-0.891,2.004s-1.438,0.709-2.531,0.709c-0.367,0-0.745-0.036-1.134-0.108
		s-0.79-0.181-1.204-0.325v-1.143c0.328,0.191,0.688,0.336,1.078,0.434s0.799,0.146,1.225,0.146c0.742,0,1.308-0.146,1.696-0.439
		s0.583-0.719,0.583-1.277c0-0.516-0.181-0.919-0.542-1.21s-0.864-0.437-1.509-0.437h-1.02v-0.973h1.066
		c0.582,0,1.027-0.116,1.336-0.349s0.463-0.567,0.463-1.005c0-0.449-0.159-0.794-0.478-1.034s-0.774-0.36-1.368-0.36
		c-0.324,0-0.672,0.035-1.043,0.105s-0.779,0.18-1.225,0.328v-1.055c0.449-0.125,0.87-0.219,1.263-0.281s0.763-0.094,1.11-0.094
		c0.898,0,1.609,0.204,2.133,0.612s0.785,0.96,0.785,1.655c0,0.484-0.139,0.894-0.416,1.228S202.279,282.987,201.767,283.116
		L201.767,283.116z"/>
	<path id="text22375" d="M188.174,248.224h7.512v0.996h-7.512V248.224z M199.26,251.488h4.131v0.996h-5.555v-0.996
		c0.449-0.465,1.062-1.088,1.837-1.871s1.263-1.289,1.462-1.516c0.379-0.426,0.644-0.785,0.794-1.08s0.226-0.586,0.226-0.871
		c0-0.465-0.163-0.844-0.489-1.137s-0.751-0.439-1.274-0.439c-0.371,0-0.763,0.064-1.175,0.193s-0.853,0.324-1.321,0.586v-1.195
		c0.477-0.191,0.922-0.336,1.336-0.434s0.793-0.146,1.137-0.146c0.906,0,1.629,0.227,2.168,0.68s0.809,1.059,0.809,1.816
		c0,0.359-0.067,0.701-0.202,1.023s-0.38,0.701-0.735,1.139c-0.098,0.113-0.408,0.441-0.932,0.982S200.213,250.515,199.26,251.488
		L199.26,251.488z"/>
	<path id="text22379" d="M188,212.712h7.512v0.996H188V212.712z M198.272,215.976h1.934v-6.674l-2.104,0.422v-1.078l2.092-0.422
		h1.184v7.752h1.934v0.996h-5.039V215.976z"/>
	<path id="text22383" d="M188.17,145.11h1.934v-6.674L188,138.858v-1.078l2.092-0.422h1.184v7.752h1.934v0.996h-5.039V145.11z"/>
	<path id="text22387" d="M189.424,109.756h4.131v0.996H188v-0.996c0.449-0.465,1.062-1.089,1.837-1.872s1.263-1.288,1.462-1.515
		c0.379-0.426,0.644-0.786,0.794-1.081s0.226-0.585,0.226-0.87c0-0.465-0.163-0.844-0.489-1.137s-0.751-0.439-1.274-0.439
		c-0.371,0-0.763,0.064-1.175,0.193s-0.853,0.324-1.321,0.586v-1.195c0.477-0.191,0.922-0.336,1.336-0.434s0.793-0.146,1.137-0.146
		c0.906,0,1.629,0.227,2.168,0.68s0.809,1.059,0.809,1.816c0,0.359-0.067,0.7-0.202,1.022s-0.38,0.702-0.735,1.14
		c-0.098,0.113-0.408,0.44-0.932,0.981S190.377,108.784,189.424,109.756L189.424,109.756z"/>
	<path id="text22391" d="M191.955,70.518c0.566,0.121,1.009,0.373,1.327,0.756s0.478,0.855,0.478,1.418
		c0,0.863-0.297,1.531-0.891,2.004s-1.438,0.709-2.531,0.709c-0.367,0-0.745-0.036-1.134-0.108s-0.79-0.181-1.204-0.325v-1.143
		c0.328,0.191,0.688,0.336,1.078,0.434s0.799,0.146,1.225,0.146c0.742,0,1.308-0.146,1.696-0.439s0.583-0.719,0.583-1.277
		c0-0.516-0.181-0.919-0.542-1.21s-0.864-0.437-1.509-0.437h-1.02v-0.973h1.066c0.582,0,1.027-0.116,1.336-0.349
		s0.463-0.567,0.463-1.005c0-0.449-0.159-0.794-0.478-1.034s-0.774-0.36-1.368-0.36c-0.324,0-0.672,0.035-1.043,0.105
		s-0.779,0.18-1.225,0.328v-1.055c0.449-0.125,0.87-0.219,1.263-0.281s0.763-0.094,1.11-0.094c0.898,0,1.609,0.204,2.133,0.612
		s0.785,0.96,0.785,1.655c0,0.484-0.139,0.894-0.416,1.228S192.467,70.389,191.955,70.518L191.955,70.518z"/>
	<path id="text22395" d="M63.138,192.901h7.512v0.996h-7.512V192.901z M76.79,192.444c0.566,0.121,1.009,0.373,1.327,0.756
		s0.478,0.855,0.478,1.418c0,0.863-0.297,1.531-0.891,2.004s-1.438,0.709-2.531,0.709c-0.367,0-0.745-0.036-1.134-0.108
		s-0.79-0.181-1.204-0.325v-1.143c0.328,0.191,0.688,0.336,1.078,0.434s0.799,0.146,1.225,0.146c0.742,0,1.308-0.146,1.696-0.439
		s0.583-0.719,0.583-1.277c0-0.516-0.181-0.919-0.542-1.21s-0.864-0.437-1.509-0.437h-1.02v-0.973h1.066
		c0.582,0,1.027-0.116,1.336-0.349s0.463-0.567,0.463-1.005c0-0.449-0.159-0.794-0.478-1.034s-0.774-0.36-1.368-0.36
		c-0.324,0-0.672,0.035-1.043,0.105s-0.779,0.18-1.225,0.328v-1.055c0.449-0.125,0.87-0.219,1.263-0.281s0.763-0.094,1.11-0.094
		c0.898,0,1.609,0.204,2.133,0.612s0.785,0.96,0.785,1.655c0,0.484-0.139,0.894-0.416,1.228S77.302,192.315,76.79,192.444
		L76.79,192.444z"/>
	<path id="text22399" d="M98.691,193.071h7.512v0.996h-7.512V193.071z M109.777,196.334h4.131v0.996h-5.555v-0.996
		c0.449-0.465,1.062-1.089,1.837-1.872s1.263-1.288,1.462-1.515c0.379-0.426,0.644-0.786,0.794-1.081s0.226-0.585,0.226-0.87
		c0-0.465-0.163-0.844-0.489-1.137s-0.751-0.439-1.274-0.439c-0.371,0-0.763,0.064-1.175,0.193s-0.853,0.324-1.321,0.586v-1.195
		c0.477-0.191,0.922-0.336,1.336-0.434s0.793-0.146,1.137-0.146c0.906,0,1.629,0.227,2.168,0.68s0.809,1.059,0.809,1.816
		c0,0.359-0.067,0.7-0.202,1.022s-0.38,0.702-0.735,1.14c-0.098,0.113-0.408,0.44-0.932,0.981S110.73,195.362,109.777,196.334
		L109.777,196.334z"/>
	<path id="text22403" d="M134.077,193.071h7.512v0.996h-7.512V193.071z M144.349,196.334h1.934v-6.674l-2.104,0.422v-1.078
		l2.092-0.422h1.184v7.752h1.934v0.996h-5.039V196.334z"/>
	<path id="text22407" d="M210.164,196.334h1.934v-6.674l-2.104,0.422v-1.078l2.092-0.422h1.184v7.752h1.934v0.996h-5.039V196.334z"
		/>
	<path id="text22411" d="M246.678,196.334h4.131v0.996h-5.555v-0.996c0.449-0.465,1.062-1.089,1.837-1.872s1.263-1.288,1.462-1.515
		c0.379-0.426,0.644-0.786,0.794-1.081s0.226-0.585,0.226-0.87c0-0.465-0.163-0.844-0.489-1.137s-0.751-0.439-1.274-0.439
		c-0.371,0-0.763,0.064-1.175,0.193s-0.853,0.324-1.321,0.586v-1.195c0.477-0.191,0.922-0.336,1.336-0.434s0.793-0.146,1.137-0.146
		c0.906,0,1.629,0.227,2.168,0.68s0.809,1.059,0.809,1.816c0,0.359-0.067,0.7-0.202,1.022s-0.38,0.702-0.735,1.14
		c-0.098,0.113-0.408,0.44-0.932,0.981S247.631,195.362,246.678,196.334L246.678,196.334z"/>
	<path id="text22415" d="M284.539,192.444c0.566,0.121,1.009,0.373,1.327,0.756s0.478,0.855,0.478,1.418
		c0,0.863-0.297,1.531-0.891,2.004s-1.438,0.709-2.531,0.709c-0.367,0-0.745-0.036-1.134-0.108s-0.79-0.181-1.204-0.325v-1.143
		c0.328,0.191,0.688,0.336,1.078,0.434s0.799,0.146,1.225,0.146c0.742,0,1.308-0.146,1.696-0.439s0.583-0.719,0.583-1.277
		c0-0.516-0.181-0.919-0.542-1.21s-0.864-0.437-1.509-0.437h-1.02v-0.973h1.066c0.582,0,1.027-0.116,1.336-0.349
		s0.463-0.567,0.463-1.005c0-0.449-0.159-0.794-0.478-1.034s-0.774-0.36-1.368-0.36c-0.324,0-0.672,0.035-1.043,0.105
		s-0.779,0.18-1.225,0.328v-1.055c0.449-0.125,0.87-0.219,1.263-0.281s0.763-0.094,1.11-0.094c0.898,0,1.609,0.204,2.133,0.612
		s0.785,0.96,0.785,1.655c0,0.484-0.139,0.894-0.416,1.228S285.051,192.315,284.539,192.444L284.539,192.444z"/>
</g>
<rect x="180.708" y="177.166" fill="none" stroke="#AF5CD6" stroke-width="4.5111" stroke-miterlimit="10" width="149.498" height="141.732"/>
<line fill="none" stroke="#AF5CD6" stroke-width="4.5111" stroke-miterlimit="10" x1="286.344" y1="212.598" x2="202.581" y2="279.539"/>
<line fill="none" stroke="#AF5CD6" stroke-width="4.5111" stroke-miterlimit="10" x1="255.457" y1="212.599" x2="203.391" y2="252.484"/>
<line fill="none" stroke="#AF5CD6" stroke-width="4.5111" stroke-miterlimit="10" x1="224.719" y1="212.657" x2="203.518" y2="232.484"/>
<g>
	
		<line fill="none" stroke="#AF5CD6" stroke-width="4.5111" stroke-miterlimit="10" x1="222.293" y1="299.948" x2="304.144" y2="230.681"/>
	
		<line fill="none" stroke="#AF5CD6" stroke-width="4.5111" stroke-miterlimit="10" x1="253.167" y1="299.079" x2="304.094" y2="257.749"/>
	
		<line fill="none" stroke="#AF5CD6" stroke-width="4.5111" stroke-miterlimit="10" x1="283.893" y1="298.158" x2="304.53" y2="277.745"/>
</g>
</svg>
